# xmcd CD database file
#
# Track frame offsets:
#	150
#	27654
#	37430
#	49108
#	61389
#	83553
#	98587
#	115240
#	128744
#	143694
#
# Disc length: 2067 seconds
#
# Revision: 1
# Processed by: cddbd v1.5.2PL0 Copyright (c) Steve Scherf et al.
# Submitted via: CDex 1.70beta2
#
DISCID=8708110a
DTITLE=GOC-70'sCH - Gold Old Country - 70's Country Hits
DYEAR=2000
DGENRE=Country
TTITLE0=Jimmy Dean - I. O. U.
TTITLE1=Johnny Paycheck - Mr. Lovemaker
TTITLE2=Lynn Anderson - You're My Man
TTITLE3=Freddy Fender - Wasted Days and Wasted Nights
TTITLE4=Marshall Tucker Band - Heard It In A Love Song
TTITLE5=Barbara Fairchild - Baby Doll
TTITLE6=Ray Price - You're The Best Thing That Ever Happened To Me
TTITLE7=Don Gibson - One Day At A Time
TTITLE8=Donna Fargo  - You Were Always There
TTITLE9=Melba Montgomery - Are You Sincere
EXTD=YEAR: 2000
EXTT0=
EXTT1=
EXTT2=
EXTT3=
EXTT4=
EXTT5=
EXTT6=
EXTT7=
EXTT8=
EXTT9=
PLAYORDER=
